<?xml version="1.0" standalone="no"?>
<!DOCTYPE svg PUBLIC "-//W3C//DTD SVG 20010904//EN"
 "http://www.w3.org/TR/2001/REC-SVG-20010904/DTD/svg10.dtd">
<svg version="1.0" xmlns="http://www.w3.org/2000/svg"
 width="389.000000pt" height="389.000000pt" viewBox="0 0 389.000000 389.000000"
 preserveAspectRatio="xMidYMid meet">

<g transform="translate(0.000000,389.000000) scale(0.100000,-0.100000)"
fill="#686868" stroke="none">
<path d="M525 3873 c-16 -3 -34 -9 -39 -14 -6 -5 -19 -9 -31 -9 -32 0 -154
-62 -212 -109 -29 -23 -71 -65 -93 -94 -22 -28 -44 -57 -49 -63 -12 -14 -44
-85 -67 -149 -18 -48 -19 -114 -22 -1450 -3 -1353 0 -1499 27 -1553 4 -9 20
-42 35 -72 33 -70 43 -85 87 -138 73 -84 165 -146 287 -189 l77 -28 1425 0
c1337 0 1428 1 1475 18 252 89 403 256 449 497 15 77 16 218 14 1450 -3 1232
-5 1371 -20 1432 -30 120 -95 228 -193 321 -47 45 -165 112 -215 122 -19 4
-41 12 -49 19 -10 8 -392 11 -1435 12 -782 1 -1434 -1 -1451 -3z m1644 -947
c793 -803 1021 -1037 1021 -1045 0 -4 -59 -65 -131 -135 l-131 -128 -192 195
c-105 107 -328 335 -496 506 l-305 311 -218 -223 c-418 -425 -779 -788 -783
-785 -2 2 -62 61 -133 132 l-130 129 179 181 c98 99 256 260 350 356 656 668
731 741 748 728 8 -7 108 -107 221 -222z m-119 -1603 c25 -10 50 -21 55 -25
59 -45 79 -68 107 -126 32 -67 32 -68 33 -217 0 -147 -1 -151 -31 -215 -57
-121 -138 -169 -280 -170 -79 0 -98 4 -140 26 -98 51 -147 131 -165 271 -38
284 82 472 301 473 47 0 91 -6 120 -17z m663 0 c68 -22 122 -74 146 -139 26
-68 26 -105 1 -178 -39 -113 -107 -157 -252 -164 l-98 -4 0 -130 0 -129 -77 3
-78 3 -3 365 -2 366 32 11 c50 16 277 14 331 -4z m-1130 0 l37 -5 0 -58 0 -57
-46 -7 c-26 -3 -76 -6 -111 -6 -45 0 -63 -4 -62 -12 1 -7 1 -145 0 -305 l-1
-293 -69 0 c-60 0 -69 2 -74 20 -4 17 -6 131 -7 573 0 14 -10 17 -67 17 -38 0
-85 3 -105 6 l-38 7 0 58 c0 55 1 58 28 62 37 6 468 6 515 0z"/>
<path d="M1885 1194 c-48 -25 -63 -43 -85 -101 -36 -97 -24 -252 26 -328 22
-33 75 -65 109 -65 43 0 95 30 120 69 37 57 51 180 31 269 -20 89 -47 136 -90
156 -43 20 -73 20 -111 0z"/>
<path d="M2517 1203 c-4 -3 -7 -58 -7 -121 l0 -115 65 5 c76 7 111 26 131 75
26 62 1 122 -63 149 -34 15 -115 19 -126 7z"/>
</g>
</svg>
